<mxfile host="app.diagrams.net" modified="2023-11-30T17:33:49.573Z" agent="Mozilla/5.0 (X11; Linux x86_64; rv:120.0) Gecko/20100101 Firefox/120.0" etag="6fAnjM2D2aR8PN4JrkRN" version="22.1.5" type="device">
  <diagram name="Page-1" id="QUn3ighMlDSOsNfIfpwA">
    <mxGraphModel dx="3434" dy="2605" grid="1" gridSize="10" guides="1" tooltips="1" connect="1" arrows="1" fold="1" page="1" pageScale="1" pageWidth="827" pageHeight="1169" math="0" shadow="0">
      <root>
        <mxCell id="0" />
        <mxCell id="1" parent="0" />
        <mxCell id="kJuOHpm5uLBI6n9v-iEt-1" value="oficina" style="rounded=1;arcSize=10;whiteSpace=wrap;html=1;align=center;" vertex="1" parent="1">
          <mxGeometry x="240" y="230" width="100" height="40" as="geometry" />
        </mxCell>
        <mxCell id="kJuOHpm5uLBI6n9v-iEt-2" value="municipio" style="rounded=1;arcSize=10;whiteSpace=wrap;html=1;align=center;" vertex="1" parent="1">
          <mxGeometry x="596" y="230" width="100" height="40" as="geometry" />
        </mxCell>
        <mxCell id="kJuOHpm5uLBI6n9v-iEt-3" value="pertenece" style="shape=rhombus;perimeter=rhombusPerimeter;whiteSpace=wrap;html=1;align=center;" vertex="1" parent="1">
          <mxGeometry x="416" y="220" width="120" height="60" as="geometry" />
        </mxCell>
        <mxCell id="kJuOHpm5uLBI6n9v-iEt-8" value="" style="endArrow=none;html=1;rounded=0;" edge="1" parent="1" source="kJuOHpm5uLBI6n9v-iEt-1" target="kJuOHpm5uLBI6n9v-iEt-3">
          <mxGeometry relative="1" as="geometry">
            <mxPoint x="66" y="350" as="sourcePoint" />
            <mxPoint x="226" y="350" as="targetPoint" />
          </mxGeometry>
        </mxCell>
        <mxCell id="kJuOHpm5uLBI6n9v-iEt-9" value="(0,N)" style="resizable=0;html=1;whiteSpace=wrap;align=left;verticalAlign=bottom;" connectable="0" vertex="1" parent="kJuOHpm5uLBI6n9v-iEt-8">
          <mxGeometry x="-1" relative="1" as="geometry" />
        </mxCell>
        <mxCell id="kJuOHpm5uLBI6n9v-iEt-12" value="" style="endArrow=none;html=1;rounded=0;" edge="1" parent="1" source="kJuOHpm5uLBI6n9v-iEt-3" target="kJuOHpm5uLBI6n9v-iEt-2">
          <mxGeometry relative="1" as="geometry">
            <mxPoint x="486" y="350" as="sourcePoint" />
            <mxPoint x="646" y="350" as="targetPoint" />
          </mxGeometry>
        </mxCell>
        <mxCell id="kJuOHpm5uLBI6n9v-iEt-14" value="(1,1)" style="resizable=0;html=1;whiteSpace=wrap;align=right;verticalAlign=bottom;" connectable="0" vertex="1" parent="kJuOHpm5uLBI6n9v-iEt-12">
          <mxGeometry x="1" relative="1" as="geometry" />
        </mxCell>
        <mxCell id="kJuOHpm5uLBI6n9v-iEt-16" value="id" style="ellipse;whiteSpace=wrap;html=1;align=center;fontStyle=4;" vertex="1" parent="1">
          <mxGeometry x="130" y="130" width="100" height="40" as="geometry" />
        </mxCell>
        <mxCell id="kJuOHpm5uLBI6n9v-iEt-17" value="" style="endArrow=none;html=1;rounded=0;" edge="1" parent="1" source="kJuOHpm5uLBI6n9v-iEt-16" target="kJuOHpm5uLBI6n9v-iEt-1">
          <mxGeometry relative="1" as="geometry">
            <mxPoint x="80" y="320" as="sourcePoint" />
            <mxPoint x="240" y="320" as="targetPoint" />
          </mxGeometry>
        </mxCell>
        <mxCell id="kJuOHpm5uLBI6n9v-iEt-18" value="provincia" style="rounded=1;arcSize=10;whiteSpace=wrap;html=1;align=center;" vertex="1" parent="1">
          <mxGeometry x="596" y="440" width="100" height="40" as="geometry" />
        </mxCell>
        <mxCell id="kJuOHpm5uLBI6n9v-iEt-19" value="estÃ¡" style="shape=rhombus;perimeter=rhombusPerimeter;whiteSpace=wrap;html=1;align=center;" vertex="1" parent="1">
          <mxGeometry x="586" y="330" width="120" height="60" as="geometry" />
        </mxCell>
        <mxCell id="kJuOHpm5uLBI6n9v-iEt-20" value="" style="endArrow=none;html=1;rounded=0;" edge="1" parent="1" source="kJuOHpm5uLBI6n9v-iEt-2" target="kJuOHpm5uLBI6n9v-iEt-19">
          <mxGeometry relative="1" as="geometry">
            <mxPoint x="190" y="440" as="sourcePoint" />
            <mxPoint x="350" y="440" as="targetPoint" />
          </mxGeometry>
        </mxCell>
        <mxCell id="kJuOHpm5uLBI6n9v-iEt-21" value="(1,N)" style="resizable=0;html=1;whiteSpace=wrap;align=left;verticalAlign=bottom;" connectable="0" vertex="1" parent="kJuOHpm5uLBI6n9v-iEt-20">
          <mxGeometry x="-1" relative="1" as="geometry">
            <mxPoint y="20" as="offset" />
          </mxGeometry>
        </mxCell>
        <mxCell id="kJuOHpm5uLBI6n9v-iEt-22" value="" style="resizable=0;html=1;whiteSpace=wrap;align=right;verticalAlign=bottom;" connectable="0" vertex="1" parent="kJuOHpm5uLBI6n9v-iEt-20">
          <mxGeometry x="1" relative="1" as="geometry" />
        </mxCell>
        <mxCell id="kJuOHpm5uLBI6n9v-iEt-23" value="" style="endArrow=none;html=1;rounded=0;" edge="1" parent="1" source="kJuOHpm5uLBI6n9v-iEt-19" target="kJuOHpm5uLBI6n9v-iEt-18">
          <mxGeometry relative="1" as="geometry">
            <mxPoint x="230" y="600" as="sourcePoint" />
            <mxPoint x="390" y="600" as="targetPoint" />
          </mxGeometry>
        </mxCell>
        <mxCell id="kJuOHpm5uLBI6n9v-iEt-25" value="(1,1)" style="resizable=0;html=1;whiteSpace=wrap;align=right;verticalAlign=bottom;" connectable="0" vertex="1" parent="kJuOHpm5uLBI6n9v-iEt-23">
          <mxGeometry x="1" relative="1" as="geometry">
            <mxPoint x="34" as="offset" />
          </mxGeometry>
        </mxCell>
        <mxCell id="kJuOHpm5uLBI6n9v-iEt-27" value="nombre" style="ellipse;whiteSpace=wrap;html=1;align=center;fontStyle=4;" vertex="1" parent="1">
          <mxGeometry x="706" y="120" width="100" height="40" as="geometry" />
        </mxCell>
        <mxCell id="kJuOHpm5uLBI6n9v-iEt-28" value="nombre" style="ellipse;whiteSpace=wrap;html=1;align=center;fontStyle=4;" vertex="1" parent="1">
          <mxGeometry x="760" y="400" width="100" height="40" as="geometry" />
        </mxCell>
        <mxCell id="kJuOHpm5uLBI6n9v-iEt-29" value="" style="endArrow=none;html=1;rounded=0;" edge="1" parent="1" source="kJuOHpm5uLBI6n9v-iEt-18" target="kJuOHpm5uLBI6n9v-iEt-28">
          <mxGeometry relative="1" as="geometry">
            <mxPoint x="90" y="400" as="sourcePoint" />
            <mxPoint x="250" y="400" as="targetPoint" />
          </mxGeometry>
        </mxCell>
        <mxCell id="kJuOHpm5uLBI6n9v-iEt-30" value="" style="endArrow=none;html=1;rounded=0;" edge="1" parent="1" source="kJuOHpm5uLBI6n9v-iEt-27" target="kJuOHpm5uLBI6n9v-iEt-2">
          <mxGeometry relative="1" as="geometry">
            <mxPoint x="370" y="100" as="sourcePoint" />
            <mxPoint x="530" y="100" as="targetPoint" />
          </mxGeometry>
        </mxCell>
        <mxCell id="kJuOHpm5uLBI6n9v-iEt-31" value="turno" style="rounded=1;arcSize=10;whiteSpace=wrap;html=1;align=center;" vertex="1" parent="1">
          <mxGeometry y="410" width="100" height="40" as="geometry" />
        </mxCell>
        <mxCell id="kJuOHpm5uLBI6n9v-iEt-32" value="jornada" style="ellipse;whiteSpace=wrap;html=1;align=center;" vertex="1" parent="1">
          <mxGeometry x="-60" y="470" width="100" height="40" as="geometry" />
        </mxCell>
        <mxCell id="kJuOHpm5uLBI6n9v-iEt-33" value="horario" style="ellipse;whiteSpace=wrap;html=1;align=center;" vertex="1" parent="1">
          <mxGeometry y="510" width="100" height="40" as="geometry" />
        </mxCell>
        <mxCell id="kJuOHpm5uLBI6n9v-iEt-34" value="id" style="ellipse;whiteSpace=wrap;html=1;align=center;fontStyle=4;" vertex="1" parent="1">
          <mxGeometry x="60" y="470" width="100" height="40" as="geometry" />
        </mxCell>
        <mxCell id="kJuOHpm5uLBI6n9v-iEt-35" value="" style="endArrow=none;html=1;rounded=0;" edge="1" parent="1" source="kJuOHpm5uLBI6n9v-iEt-34" target="kJuOHpm5uLBI6n9v-iEt-31">
          <mxGeometry relative="1" as="geometry">
            <mxPoint x="180" y="510" as="sourcePoint" />
            <mxPoint x="340" y="510" as="targetPoint" />
          </mxGeometry>
        </mxCell>
        <mxCell id="kJuOHpm5uLBI6n9v-iEt-36" value="" style="endArrow=none;html=1;rounded=0;" edge="1" parent="1" source="kJuOHpm5uLBI6n9v-iEt-33" target="kJuOHpm5uLBI6n9v-iEt-31">
          <mxGeometry relative="1" as="geometry">
            <mxPoint x="190" y="520" as="sourcePoint" />
            <mxPoint x="350" y="520" as="targetPoint" />
          </mxGeometry>
        </mxCell>
        <mxCell id="kJuOHpm5uLBI6n9v-iEt-37" value="" style="endArrow=none;html=1;rounded=0;" edge="1" parent="1" source="kJuOHpm5uLBI6n9v-iEt-32" target="kJuOHpm5uLBI6n9v-iEt-31">
          <mxGeometry relative="1" as="geometry">
            <mxPoint x="200" y="530" as="sourcePoint" />
            <mxPoint x="360" y="530" as="targetPoint" />
          </mxGeometry>
        </mxCell>
        <mxCell id="kJuOHpm5uLBI6n9v-iEt-122" style="edgeStyle=none;rounded=0;orthogonalLoop=1;jettySize=auto;html=1;exitX=1;exitY=0.25;exitDx=0;exitDy=0;endArrow=none;endFill=0;entryX=0.5;entryY=1;entryDx=0;entryDy=0;" edge="1" parent="1" source="kJuOHpm5uLBI6n9v-iEt-38" target="kJuOHpm5uLBI6n9v-iEt-117">
          <mxGeometry relative="1" as="geometry">
            <mxPoint x="1520" y="350" as="targetPoint" />
            <Array as="points">
              <mxPoint x="540" y="350" />
              <mxPoint x="540" y="540" />
              <mxPoint x="1335" y="540" />
              <mxPoint x="1335" y="350" />
              <mxPoint x="1520" y="350" />
            </Array>
          </mxGeometry>
        </mxCell>
        <mxCell id="kJuOHpm5uLBI6n9v-iEt-38" value="cartero" style="rounded=1;arcSize=10;whiteSpace=wrap;html=1;align=center;" vertex="1" parent="1">
          <mxGeometry x="160" y="340" width="100" height="40" as="geometry" />
        </mxCell>
        <mxCell id="kJuOHpm5uLBI6n9v-iEt-39" value="trabaja" style="shape=rhombus;perimeter=rhombusPerimeter;whiteSpace=wrap;html=1;align=center;" vertex="1" parent="1">
          <mxGeometry x="-10" y="220" width="120" height="60" as="geometry" />
        </mxCell>
        <mxCell id="kJuOHpm5uLBI6n9v-iEt-40" value="" style="endArrow=none;html=1;rounded=0;" edge="1" parent="1" source="kJuOHpm5uLBI6n9v-iEt-31" target="kJuOHpm5uLBI6n9v-iEt-39">
          <mxGeometry relative="1" as="geometry">
            <mxPoint x="210" y="540" as="sourcePoint" />
            <mxPoint x="370" y="540" as="targetPoint" />
          </mxGeometry>
        </mxCell>
        <mxCell id="kJuOHpm5uLBI6n9v-iEt-41" value="" style="endArrow=none;html=1;rounded=0;" edge="1" parent="1" source="kJuOHpm5uLBI6n9v-iEt-39" target="kJuOHpm5uLBI6n9v-iEt-1">
          <mxGeometry relative="1" as="geometry">
            <mxPoint x="220" y="550" as="sourcePoint" />
            <mxPoint x="380" y="550" as="targetPoint" />
          </mxGeometry>
        </mxCell>
        <mxCell id="kJuOHpm5uLBI6n9v-iEt-42" value="" style="endArrow=none;html=1;rounded=0;" edge="1" parent="1" source="kJuOHpm5uLBI6n9v-iEt-39" target="kJuOHpm5uLBI6n9v-iEt-38">
          <mxGeometry relative="1" as="geometry">
            <mxPoint x="230" y="560" as="sourcePoint" />
            <mxPoint x="390" y="560" as="targetPoint" />
          </mxGeometry>
        </mxCell>
        <mxCell id="kJuOHpm5uLBI6n9v-iEt-43" value="fecha" style="ellipse;whiteSpace=wrap;html=1;align=center;" vertex="1" parent="1">
          <mxGeometry x="-120" y="150" width="100" height="40" as="geometry" />
        </mxCell>
        <mxCell id="kJuOHpm5uLBI6n9v-iEt-44" value="" style="endArrow=none;html=1;rounded=0;" edge="1" parent="1" source="kJuOHpm5uLBI6n9v-iEt-39" target="kJuOHpm5uLBI6n9v-iEt-43">
          <mxGeometry relative="1" as="geometry">
            <mxPoint x="-370" y="240" as="sourcePoint" />
            <mxPoint x="-210" y="240" as="targetPoint" />
          </mxGeometry>
        </mxCell>
        <mxCell id="kJuOHpm5uLBI6n9v-iEt-46" value="nombre" style="ellipse;whiteSpace=wrap;html=1;align=center;" vertex="1" parent="1">
          <mxGeometry x="316" y="450" width="100" height="40" as="geometry" />
        </mxCell>
        <mxCell id="kJuOHpm5uLBI6n9v-iEt-47" value="apellido" style="ellipse;whiteSpace=wrap;html=1;align=center;" vertex="1" parent="1">
          <mxGeometry x="200" y="450" width="100" height="40" as="geometry" />
        </mxCell>
        <mxCell id="kJuOHpm5uLBI6n9v-iEt-48" value="DNI" style="ellipse;whiteSpace=wrap;html=1;align=center;fontStyle=4;" vertex="1" parent="1">
          <mxGeometry x="330" y="380" width="100" height="40" as="geometry" />
        </mxCell>
        <mxCell id="kJuOHpm5uLBI6n9v-iEt-49" value="" style="endArrow=none;html=1;rounded=0;" edge="1" parent="1" source="kJuOHpm5uLBI6n9v-iEt-38" target="kJuOHpm5uLBI6n9v-iEt-48">
          <mxGeometry relative="1" as="geometry">
            <mxPoint x="300" y="300" as="sourcePoint" />
            <mxPoint x="460" y="300" as="targetPoint" />
          </mxGeometry>
        </mxCell>
        <mxCell id="kJuOHpm5uLBI6n9v-iEt-50" value="" style="endArrow=none;html=1;rounded=0;" edge="1" parent="1" source="kJuOHpm5uLBI6n9v-iEt-38" target="kJuOHpm5uLBI6n9v-iEt-47">
          <mxGeometry relative="1" as="geometry">
            <mxPoint x="260" y="610" as="sourcePoint" />
            <mxPoint x="420" y="610" as="targetPoint" />
          </mxGeometry>
        </mxCell>
        <mxCell id="kJuOHpm5uLBI6n9v-iEt-51" value="" style="endArrow=none;html=1;rounded=0;" edge="1" parent="1" source="kJuOHpm5uLBI6n9v-iEt-38" target="kJuOHpm5uLBI6n9v-iEt-46">
          <mxGeometry relative="1" as="geometry">
            <mxPoint x="290" y="570" as="sourcePoint" />
            <mxPoint x="450" y="570" as="targetPoint" />
          </mxGeometry>
        </mxCell>
        <mxCell id="kJuOHpm5uLBI6n9v-iEt-56" value="(0,N)" style="text;html=1;align=center;verticalAlign=middle;resizable=0;points=[];autosize=1;strokeColor=none;fillColor=none;" vertex="1" parent="1">
          <mxGeometry x="190" y="220" width="50" height="30" as="geometry" />
        </mxCell>
        <mxCell id="kJuOHpm5uLBI6n9v-iEt-57" value="&lt;div align=&quot;right&quot;&gt;(1,N)&lt;/div&gt;" style="text;html=1;align=right;verticalAlign=middle;resizable=0;points=[];autosize=1;strokeColor=none;fillColor=none;" vertex="1" parent="1">
          <mxGeometry x="-5" y="378" width="50" height="30" as="geometry" />
        </mxCell>
        <mxCell id="kJuOHpm5uLBI6n9v-iEt-58" value="&lt;div align=&quot;left&quot;&gt;(1,N)&lt;/div&gt;" style="text;html=1;align=left;verticalAlign=middle;resizable=0;points=[];autosize=1;strokeColor=none;fillColor=none;" vertex="1" parent="1">
          <mxGeometry x="60" y="378" width="50" height="30" as="geometry" />
        </mxCell>
        <mxCell id="kJuOHpm5uLBI6n9v-iEt-59" value="(0,N)" style="text;html=1;align=center;verticalAlign=middle;resizable=0;points=[];autosize=1;strokeColor=none;fillColor=none;" vertex="1" parent="1">
          <mxGeometry x="120" y="320" width="50" height="30" as="geometry" />
        </mxCell>
        <mxCell id="kJuOHpm5uLBI6n9v-iEt-60" value="(1,N)" style="text;html=1;align=center;verticalAlign=middle;resizable=0;points=[];autosize=1;strokeColor=none;fillColor=none;" vertex="1" parent="1">
          <mxGeometry x="155" y="308" width="50" height="30" as="geometry" />
        </mxCell>
        <mxCell id="kJuOHpm5uLBI6n9v-iEt-61" value="(1,N)" style="text;html=1;align=center;verticalAlign=middle;resizable=0;points=[];autosize=1;strokeColor=none;fillColor=none;" vertex="1" parent="1">
          <mxGeometry x="190" y="250" width="50" height="30" as="geometry" />
        </mxCell>
        <mxCell id="kJuOHpm5uLBI6n9v-iEt-62" value="coche" style="rounded=1;arcSize=10;whiteSpace=wrap;html=1;align=center;" vertex="1" parent="1">
          <mxGeometry x="390" y="10" width="100" height="40" as="geometry" />
        </mxCell>
        <mxCell id="kJuOHpm5uLBI6n9v-iEt-63" value="tiene" style="shape=rhombus;perimeter=rhombusPerimeter;whiteSpace=wrap;html=1;align=center;" vertex="1" parent="1">
          <mxGeometry x="306" y="100" width="120" height="60" as="geometry" />
        </mxCell>
        <mxCell id="kJuOHpm5uLBI6n9v-iEt-64" value="" style="endArrow=none;html=1;rounded=0;" edge="1" parent="1" source="kJuOHpm5uLBI6n9v-iEt-62" target="kJuOHpm5uLBI6n9v-iEt-63">
          <mxGeometry relative="1" as="geometry">
            <mxPoint x="530" y="90" as="sourcePoint" />
            <mxPoint x="690" y="90" as="targetPoint" />
          </mxGeometry>
        </mxCell>
        <mxCell id="kJuOHpm5uLBI6n9v-iEt-65" value="" style="endArrow=none;html=1;rounded=0;" edge="1" parent="1" source="kJuOHpm5uLBI6n9v-iEt-1" target="kJuOHpm5uLBI6n9v-iEt-63">
          <mxGeometry relative="1" as="geometry">
            <mxPoint x="480" y="160" as="sourcePoint" />
            <mxPoint x="640" y="160" as="targetPoint" />
          </mxGeometry>
        </mxCell>
        <mxCell id="kJuOHpm5uLBI6n9v-iEt-66" value="capacidad" style="ellipse;whiteSpace=wrap;html=1;align=center;" vertex="1" parent="1">
          <mxGeometry x="390" y="-120" width="100" height="40" as="geometry" />
        </mxCell>
        <mxCell id="kJuOHpm5uLBI6n9v-iEt-67" value="ID" style="ellipse;whiteSpace=wrap;html=1;align=center;fontStyle=4;" vertex="1" parent="1">
          <mxGeometry x="326" y="-80" width="100" height="40" as="geometry" />
        </mxCell>
        <mxCell id="kJuOHpm5uLBI6n9v-iEt-68" value="max_paq" style="ellipse;whiteSpace=wrap;html=1;align=center;" vertex="1" parent="1">
          <mxGeometry x="460" y="-80" width="100" height="40" as="geometry" />
        </mxCell>
        <mxCell id="kJuOHpm5uLBI6n9v-iEt-69" value="max_cartas" style="ellipse;whiteSpace=wrap;html=1;align=center;" vertex="1" parent="1">
          <mxGeometry x="510" y="-40" width="100" height="40" as="geometry" />
        </mxCell>
        <mxCell id="kJuOHpm5uLBI6n9v-iEt-70" value="" style="endArrow=none;html=1;rounded=0;" edge="1" parent="1" source="kJuOHpm5uLBI6n9v-iEt-67" target="kJuOHpm5uLBI6n9v-iEt-62">
          <mxGeometry relative="1" as="geometry">
            <mxPoint x="400" y="-160" as="sourcePoint" />
            <mxPoint x="560" y="-160" as="targetPoint" />
          </mxGeometry>
        </mxCell>
        <mxCell id="kJuOHpm5uLBI6n9v-iEt-71" value="" style="endArrow=none;html=1;rounded=0;" edge="1" parent="1" source="kJuOHpm5uLBI6n9v-iEt-62" target="kJuOHpm5uLBI6n9v-iEt-66">
          <mxGeometry relative="1" as="geometry">
            <mxPoint x="410" y="-150" as="sourcePoint" />
            <mxPoint x="570" y="-150" as="targetPoint" />
          </mxGeometry>
        </mxCell>
        <mxCell id="kJuOHpm5uLBI6n9v-iEt-72" value="" style="endArrow=none;html=1;rounded=0;" edge="1" parent="1" source="kJuOHpm5uLBI6n9v-iEt-62" target="kJuOHpm5uLBI6n9v-iEt-68">
          <mxGeometry relative="1" as="geometry">
            <mxPoint x="420" y="-140" as="sourcePoint" />
            <mxPoint x="580" y="-140" as="targetPoint" />
          </mxGeometry>
        </mxCell>
        <mxCell id="kJuOHpm5uLBI6n9v-iEt-73" value="" style="endArrow=none;html=1;rounded=0;" edge="1" parent="1" source="kJuOHpm5uLBI6n9v-iEt-62" target="kJuOHpm5uLBI6n9v-iEt-69">
          <mxGeometry relative="1" as="geometry">
            <mxPoint x="430" y="-130" as="sourcePoint" />
            <mxPoint x="590" y="-130" as="targetPoint" />
          </mxGeometry>
        </mxCell>
        <mxCell id="kJuOHpm5uLBI6n9v-iEt-75" value="carta" style="rounded=1;arcSize=10;whiteSpace=wrap;html=1;align=center;" vertex="1" parent="1">
          <mxGeometry x="1270" y="-40" width="100" height="40" as="geometry" />
        </mxCell>
        <mxCell id="kJuOHpm5uLBI6n9v-iEt-76" value="paquete" style="rounded=1;arcSize=10;whiteSpace=wrap;html=1;align=center;" vertex="1" parent="1">
          <mxGeometry x="1260" y="120" width="100" height="40" as="geometry" />
        </mxCell>
        <mxCell id="kJuOHpm5uLBI6n9v-iEt-77" value="&lt;div&gt;carta&lt;/div&gt;&lt;div&gt;certificada&lt;br&gt;&lt;/div&gt;" style="rounded=1;arcSize=10;whiteSpace=wrap;html=1;align=center;" vertex="1" parent="1">
          <mxGeometry x="1180" y="338" width="100" height="40" as="geometry" />
        </mxCell>
        <mxCell id="kJuOHpm5uLBI6n9v-iEt-78" value="id" style="ellipse;whiteSpace=wrap;html=1;align=center;fontStyle=4;" vertex="1" parent="1">
          <mxGeometry x="1330" y="-100" width="100" height="40" as="geometry" />
        </mxCell>
        <mxCell id="kJuOHpm5uLBI6n9v-iEt-79" value="id" style="ellipse;whiteSpace=wrap;html=1;align=center;fontStyle=4;" vertex="1" parent="1">
          <mxGeometry x="1230" y="40" width="100" height="40" as="geometry" />
        </mxCell>
        <mxCell id="kJuOHpm5uLBI6n9v-iEt-80" value="id" style="ellipse;whiteSpace=wrap;html=1;align=center;fontStyle=4;" vertex="1" parent="1">
          <mxGeometry x="1160" y="450" width="100" height="40" as="geometry" />
        </mxCell>
        <mxCell id="kJuOHpm5uLBI6n9v-iEt-81" value="" style="endArrow=none;html=1;rounded=0;" edge="1" parent="1" source="kJuOHpm5uLBI6n9v-iEt-78" target="kJuOHpm5uLBI6n9v-iEt-75">
          <mxGeometry relative="1" as="geometry">
            <mxPoint x="280" y="542" as="sourcePoint" />
            <mxPoint x="440" y="542" as="targetPoint" />
          </mxGeometry>
        </mxCell>
        <mxCell id="kJuOHpm5uLBI6n9v-iEt-82" value="" style="endArrow=none;html=1;rounded=0;" edge="1" parent="1" source="kJuOHpm5uLBI6n9v-iEt-80" target="kJuOHpm5uLBI6n9v-iEt-77">
          <mxGeometry relative="1" as="geometry">
            <mxPoint x="290" y="552" as="sourcePoint" />
            <mxPoint x="450" y="552" as="targetPoint" />
          </mxGeometry>
        </mxCell>
        <mxCell id="kJuOHpm5uLBI6n9v-iEt-83" value="" style="endArrow=none;html=1;rounded=0;" edge="1" parent="1" source="kJuOHpm5uLBI6n9v-iEt-79" target="kJuOHpm5uLBI6n9v-iEt-76">
          <mxGeometry relative="1" as="geometry">
            <mxPoint x="300" y="562" as="sourcePoint" />
            <mxPoint x="460" y="562" as="targetPoint" />
          </mxGeometry>
        </mxCell>
        <mxCell id="kJuOHpm5uLBI6n9v-iEt-84" value="formato" style="ellipse;whiteSpace=wrap;html=1;align=center;" vertex="1" parent="1">
          <mxGeometry x="1260" y="-150" width="100" height="40" as="geometry" />
        </mxCell>
        <mxCell id="kJuOHpm5uLBI6n9v-iEt-85" value="" style="endArrow=none;html=1;rounded=0;" edge="1" parent="1" source="kJuOHpm5uLBI6n9v-iEt-84" target="kJuOHpm5uLBI6n9v-iEt-75">
          <mxGeometry relative="1" as="geometry">
            <mxPoint x="-80" y="572" as="sourcePoint" />
            <mxPoint x="80" y="572" as="targetPoint" />
          </mxGeometry>
        </mxCell>
        <mxCell id="kJuOHpm5uLBI6n9v-iEt-86" value="peso" style="ellipse;whiteSpace=wrap;html=1;align=center;" vertex="1" parent="1">
          <mxGeometry x="1360" y="80" width="100" height="40" as="geometry" />
        </mxCell>
        <mxCell id="kJuOHpm5uLBI6n9v-iEt-87" value="&lt;div&gt;dimension&lt;/div&gt;" style="ellipse;whiteSpace=wrap;html=1;align=center;" vertex="1" parent="1">
          <mxGeometry x="1330" y="30" width="100" height="40" as="geometry" />
        </mxCell>
        <mxCell id="kJuOHpm5uLBI6n9v-iEt-88" value="" style="endArrow=none;html=1;rounded=0;" edge="1" parent="1" source="kJuOHpm5uLBI6n9v-iEt-87" target="kJuOHpm5uLBI6n9v-iEt-76">
          <mxGeometry relative="1" as="geometry">
            <mxPoint x="100" y="572" as="sourcePoint" />
            <mxPoint x="260" y="572" as="targetPoint" />
          </mxGeometry>
        </mxCell>
        <mxCell id="kJuOHpm5uLBI6n9v-iEt-89" value="" style="endArrow=none;html=1;rounded=0;" edge="1" parent="1" source="kJuOHpm5uLBI6n9v-iEt-86" target="kJuOHpm5uLBI6n9v-iEt-76">
          <mxGeometry relative="1" as="geometry">
            <mxPoint x="310" y="592" as="sourcePoint" />
            <mxPoint x="470" y="592" as="targetPoint" />
          </mxGeometry>
        </mxCell>
        <mxCell id="kJuOHpm5uLBI6n9v-iEt-90" value="&lt;div&gt;nivel&lt;/div&gt;&lt;div&gt;urgencia&lt;br&gt;&lt;/div&gt;" style="ellipse;whiteSpace=wrap;html=1;align=center;" vertex="1" parent="1">
          <mxGeometry x="1230" y="400" width="100" height="40" as="geometry" />
        </mxCell>
        <mxCell id="kJuOHpm5uLBI6n9v-iEt-91" value="" style="endArrow=none;html=1;rounded=0;" edge="1" parent="1" source="kJuOHpm5uLBI6n9v-iEt-77" target="kJuOHpm5uLBI6n9v-iEt-90">
          <mxGeometry relative="1" as="geometry">
            <mxPoint x="420" y="602" as="sourcePoint" />
            <mxPoint x="580" y="602" as="targetPoint" />
          </mxGeometry>
        </mxCell>
        <mxCell id="kJuOHpm5uLBI6n9v-iEt-92" value="usuario" style="rounded=1;arcSize=10;whiteSpace=wrap;html=1;align=center;" vertex="1" parent="1">
          <mxGeometry x="930" y="240" width="100" height="40" as="geometry" />
        </mxCell>
        <mxCell id="kJuOHpm5uLBI6n9v-iEt-93" value="nombre" style="ellipse;whiteSpace=wrap;html=1;align=center;" vertex="1" parent="1">
          <mxGeometry x="870" y="298" width="100" height="40" as="geometry" />
        </mxCell>
        <mxCell id="kJuOHpm5uLBI6n9v-iEt-94" value="app" style="ellipse;whiteSpace=wrap;html=1;align=center;" vertex="1" parent="1">
          <mxGeometry x="930" y="340" width="100" height="40" as="geometry" />
        </mxCell>
        <mxCell id="kJuOHpm5uLBI6n9v-iEt-95" value="direcciÃ³n" style="ellipse;whiteSpace=wrap;html=1;align=center;" vertex="1" parent="1">
          <mxGeometry x="990" y="298" width="100" height="40" as="geometry" />
        </mxCell>
        <mxCell id="kJuOHpm5uLBI6n9v-iEt-96" value="" style="endArrow=none;html=1;rounded=0;" edge="1" parent="1" source="kJuOHpm5uLBI6n9v-iEt-92" target="kJuOHpm5uLBI6n9v-iEt-93">
          <mxGeometry relative="1" as="geometry">
            <mxPoint x="990" y="70" as="sourcePoint" />
            <mxPoint x="1150" y="70" as="targetPoint" />
          </mxGeometry>
        </mxCell>
        <mxCell id="kJuOHpm5uLBI6n9v-iEt-97" value="" style="endArrow=none;html=1;rounded=0;" edge="1" parent="1" source="kJuOHpm5uLBI6n9v-iEt-92" target="kJuOHpm5uLBI6n9v-iEt-94">
          <mxGeometry relative="1" as="geometry">
            <mxPoint x="1000" y="80" as="sourcePoint" />
            <mxPoint x="1160" y="80" as="targetPoint" />
          </mxGeometry>
        </mxCell>
        <mxCell id="kJuOHpm5uLBI6n9v-iEt-98" value="" style="endArrow=none;html=1;rounded=0;" edge="1" parent="1" source="kJuOHpm5uLBI6n9v-iEt-92" target="kJuOHpm5uLBI6n9v-iEt-95">
          <mxGeometry relative="1" as="geometry">
            <mxPoint x="1010" y="90" as="sourcePoint" />
            <mxPoint x="1170" y="90" as="targetPoint" />
          </mxGeometry>
        </mxCell>
        <mxCell id="kJuOHpm5uLBI6n9v-iEt-99" value="recibe" style="shape=rhombus;perimeter=rhombusPerimeter;whiteSpace=wrap;html=1;align=center;" vertex="1" parent="1">
          <mxGeometry x="1110" y="-10" width="120" height="60" as="geometry" />
        </mxCell>
        <mxCell id="kJuOHpm5uLBI6n9v-iEt-100" value="envia" style="shape=rhombus;perimeter=rhombusPerimeter;whiteSpace=wrap;html=1;align=center;" vertex="1" parent="1">
          <mxGeometry x="1110" y="70" width="120" height="60" as="geometry" />
        </mxCell>
        <mxCell id="kJuOHpm5uLBI6n9v-iEt-101" value="recibe" style="shape=rhombus;perimeter=rhombusPerimeter;whiteSpace=wrap;html=1;align=center;" vertex="1" parent="1">
          <mxGeometry x="1110" y="140" width="120" height="60" as="geometry" />
        </mxCell>
        <mxCell id="kJuOHpm5uLBI6n9v-iEt-102" value="envia" style="shape=rhombus;perimeter=rhombusPerimeter;whiteSpace=wrap;html=1;align=center;" vertex="1" parent="1">
          <mxGeometry x="1110" y="210" width="120" height="60" as="geometry" />
        </mxCell>
        <mxCell id="kJuOHpm5uLBI6n9v-iEt-103" value="envia" style="shape=rhombus;perimeter=rhombusPerimeter;whiteSpace=wrap;html=1;align=center;" vertex="1" parent="1">
          <mxGeometry x="1110" y="-90" width="120" height="60" as="geometry" />
        </mxCell>
        <mxCell id="kJuOHpm5uLBI6n9v-iEt-104" value="" style="endArrow=none;html=1;rounded=0;entryX=0;entryY=1;entryDx=0;entryDy=0;" edge="1" parent="1" source="kJuOHpm5uLBI6n9v-iEt-92" target="kJuOHpm5uLBI6n9v-iEt-103">
          <mxGeometry relative="1" as="geometry">
            <mxPoint x="930" y="170" as="sourcePoint" />
            <mxPoint x="1090" y="170" as="targetPoint" />
          </mxGeometry>
        </mxCell>
        <mxCell id="kJuOHpm5uLBI6n9v-iEt-105" value="" style="endArrow=none;html=1;rounded=0;" edge="1" parent="1" source="kJuOHpm5uLBI6n9v-iEt-92" target="kJuOHpm5uLBI6n9v-iEt-99">
          <mxGeometry relative="1" as="geometry">
            <mxPoint x="940" y="180" as="sourcePoint" />
            <mxPoint x="1100" y="180" as="targetPoint" />
          </mxGeometry>
        </mxCell>
        <mxCell id="kJuOHpm5uLBI6n9v-iEt-106" value="" style="endArrow=none;html=1;rounded=0;" edge="1" parent="1" source="kJuOHpm5uLBI6n9v-iEt-92" target="kJuOHpm5uLBI6n9v-iEt-100">
          <mxGeometry relative="1" as="geometry">
            <mxPoint x="950" y="190" as="sourcePoint" />
            <mxPoint x="1110" y="190" as="targetPoint" />
          </mxGeometry>
        </mxCell>
        <mxCell id="kJuOHpm5uLBI6n9v-iEt-107" value="" style="endArrow=none;html=1;rounded=0;" edge="1" parent="1" source="kJuOHpm5uLBI6n9v-iEt-92" target="kJuOHpm5uLBI6n9v-iEt-101">
          <mxGeometry relative="1" as="geometry">
            <mxPoint x="960" y="200" as="sourcePoint" />
            <mxPoint x="1120" y="200" as="targetPoint" />
          </mxGeometry>
        </mxCell>
        <mxCell id="kJuOHpm5uLBI6n9v-iEt-108" value="" style="endArrow=none;html=1;rounded=0;" edge="1" parent="1" source="kJuOHpm5uLBI6n9v-iEt-92" target="kJuOHpm5uLBI6n9v-iEt-102">
          <mxGeometry relative="1" as="geometry">
            <mxPoint x="970" y="210" as="sourcePoint" />
            <mxPoint x="1130" y="210" as="targetPoint" />
          </mxGeometry>
        </mxCell>
        <mxCell id="kJuOHpm5uLBI6n9v-iEt-111" value="" style="endArrow=none;html=1;rounded=0;" edge="1" parent="1" source="kJuOHpm5uLBI6n9v-iEt-99" target="kJuOHpm5uLBI6n9v-iEt-75">
          <mxGeometry relative="1" as="geometry">
            <mxPoint x="1280" y="100" as="sourcePoint" />
            <mxPoint x="1440" y="100" as="targetPoint" />
          </mxGeometry>
        </mxCell>
        <mxCell id="kJuOHpm5uLBI6n9v-iEt-112" value="" style="endArrow=none;html=1;rounded=0;" edge="1" parent="1" source="kJuOHpm5uLBI6n9v-iEt-103" target="kJuOHpm5uLBI6n9v-iEt-75">
          <mxGeometry relative="1" as="geometry">
            <mxPoint x="1240" y="160" as="sourcePoint" />
            <mxPoint x="1400" y="160" as="targetPoint" />
          </mxGeometry>
        </mxCell>
        <mxCell id="kJuOHpm5uLBI6n9v-iEt-115" value="" style="endArrow=none;html=1;rounded=0;" edge="1" parent="1" source="kJuOHpm5uLBI6n9v-iEt-100" target="kJuOHpm5uLBI6n9v-iEt-76">
          <mxGeometry relative="1" as="geometry">
            <mxPoint x="1310" y="200" as="sourcePoint" />
            <mxPoint x="1470" y="200" as="targetPoint" />
          </mxGeometry>
        </mxCell>
        <mxCell id="kJuOHpm5uLBI6n9v-iEt-116" value="" style="endArrow=none;html=1;rounded=0;" edge="1" parent="1" source="kJuOHpm5uLBI6n9v-iEt-101" target="kJuOHpm5uLBI6n9v-iEt-76">
          <mxGeometry relative="1" as="geometry">
            <mxPoint x="1280" y="270" as="sourcePoint" />
            <mxPoint x="1440" y="270" as="targetPoint" />
          </mxGeometry>
        </mxCell>
        <mxCell id="kJuOHpm5uLBI6n9v-iEt-117" value="entrega" style="shape=rhombus;perimeter=rhombusPerimeter;whiteSpace=wrap;html=1;align=center;" vertex="1" parent="1">
          <mxGeometry x="1460" y="110" width="120" height="60" as="geometry" />
        </mxCell>
        <mxCell id="kJuOHpm5uLBI6n9v-iEt-123" style="edgeStyle=none;rounded=0;orthogonalLoop=1;jettySize=auto;html=1;exitX=0.5;exitY=1;exitDx=0;exitDy=0;endArrow=none;endFill=0;" edge="1" parent="1" source="kJuOHpm5uLBI6n9v-iEt-118">
          <mxGeometry relative="1" as="geometry">
            <mxPoint x="1519.608695652174" y="260" as="targetPoint" />
            <Array as="points">
              <mxPoint x="1520" y="70" />
              <mxPoint x="1620" y="70" />
              <mxPoint x="1620" y="260" />
            </Array>
          </mxGeometry>
        </mxCell>
        <mxCell id="kJuOHpm5uLBI6n9v-iEt-118" value="entrega" style="shape=rhombus;perimeter=rhombusPerimeter;whiteSpace=wrap;html=1;align=center;" vertex="1" parent="1">
          <mxGeometry x="1460" y="-50" width="120" height="60" as="geometry" />
        </mxCell>
        <mxCell id="kJuOHpm5uLBI6n9v-iEt-124" value="" style="endArrow=none;html=1;rounded=0;" edge="1" parent="1" source="kJuOHpm5uLBI6n9v-iEt-76" target="kJuOHpm5uLBI6n9v-iEt-117">
          <mxGeometry relative="1" as="geometry">
            <mxPoint x="1280" y="90" as="sourcePoint" />
            <mxPoint x="1440" y="90" as="targetPoint" />
          </mxGeometry>
        </mxCell>
        <mxCell id="kJuOHpm5uLBI6n9v-iEt-125" value="" style="endArrow=none;html=1;rounded=0;" edge="1" parent="1" source="kJuOHpm5uLBI6n9v-iEt-75" target="kJuOHpm5uLBI6n9v-iEt-118">
          <mxGeometry relative="1" as="geometry">
            <mxPoint x="1280" y="90" as="sourcePoint" />
            <mxPoint x="1440" y="90" as="targetPoint" />
          </mxGeometry>
        </mxCell>
        <mxCell id="kJuOHpm5uLBI6n9v-iEt-127" value="comentario" style="ellipse;whiteSpace=wrap;html=1;align=center;" vertex="1" parent="1">
          <mxGeometry x="1370" y="200" width="100" height="40" as="geometry" />
        </mxCell>
        <mxCell id="kJuOHpm5uLBI6n9v-iEt-128" value="" style="endArrow=none;html=1;rounded=0;" edge="1" parent="1" source="kJuOHpm5uLBI6n9v-iEt-127" target="kJuOHpm5uLBI6n9v-iEt-117">
          <mxGeometry relative="1" as="geometry">
            <mxPoint x="1290" y="300" as="sourcePoint" />
            <mxPoint x="1450" y="300" as="targetPoint" />
          </mxGeometry>
        </mxCell>
        <mxCell id="kJuOHpm5uLBI6n9v-iEt-129" value="&lt;div&gt;usuario&lt;/div&gt;&lt;div&gt;loggeado&lt;br&gt;&lt;/div&gt;" style="rounded=1;arcSize=10;whiteSpace=wrap;html=1;align=center;" vertex="1" parent="1">
          <mxGeometry x="930" y="430" width="100" height="40" as="geometry" />
        </mxCell>
        <mxCell id="kJuOHpm5uLBI6n9v-iEt-132" value="recibe" style="shape=rhombus;perimeter=rhombusPerimeter;whiteSpace=wrap;html=1;align=center;" vertex="1" parent="1">
          <mxGeometry x="1040" y="350" width="120" height="60" as="geometry" />
        </mxCell>
        <mxCell id="kJuOHpm5uLBI6n9v-iEt-133" value="" style="endArrow=none;html=1;rounded=0;" edge="1" parent="1" source="kJuOHpm5uLBI6n9v-iEt-102" target="kJuOHpm5uLBI6n9v-iEt-77">
          <mxGeometry relative="1" as="geometry">
            <mxPoint x="1220" y="280" as="sourcePoint" />
            <mxPoint x="1380" y="280" as="targetPoint" />
          </mxGeometry>
        </mxCell>
        <mxCell id="kJuOHpm5uLBI6n9v-iEt-134" value="" style="endArrow=none;html=1;rounded=0;" edge="1" parent="1" source="kJuOHpm5uLBI6n9v-iEt-132" target="kJuOHpm5uLBI6n9v-iEt-129">
          <mxGeometry relative="1" as="geometry">
            <mxPoint x="1320" y="280" as="sourcePoint" />
            <mxPoint x="1480" y="280" as="targetPoint" />
          </mxGeometry>
        </mxCell>
        <mxCell id="kJuOHpm5uLBI6n9v-iEt-135" value="" style="endArrow=none;html=1;rounded=0;" edge="1" parent="1" source="kJuOHpm5uLBI6n9v-iEt-77" target="kJuOHpm5uLBI6n9v-iEt-132">
          <mxGeometry relative="1" as="geometry">
            <mxPoint x="1310" y="300" as="sourcePoint" />
            <mxPoint x="1470" y="300" as="targetPoint" />
          </mxGeometry>
        </mxCell>
        <mxCell id="kJuOHpm5uLBI6n9v-iEt-136" value="autoriza" style="shape=rhombus;perimeter=rhombusPerimeter;whiteSpace=wrap;html=1;align=center;" vertex="1" parent="1">
          <mxGeometry x="1050" y="420" width="120" height="60" as="geometry" />
        </mxCell>
        <mxCell id="kJuOHpm5uLBI6n9v-iEt-137" value="" style="endArrow=none;html=1;rounded=0;" edge="1" parent="1" source="kJuOHpm5uLBI6n9v-iEt-129" target="kJuOHpm5uLBI6n9v-iEt-136">
          <mxGeometry relative="1" as="geometry">
            <mxPoint x="930" y="490" as="sourcePoint" />
            <mxPoint x="1090" y="490" as="targetPoint" />
          </mxGeometry>
        </mxCell>
        <mxCell id="kJuOHpm5uLBI6n9v-iEt-138" value="" style="endArrow=none;html=1;rounded=0;" edge="1" parent="1" source="kJuOHpm5uLBI6n9v-iEt-77" target="kJuOHpm5uLBI6n9v-iEt-136">
          <mxGeometry relative="1" as="geometry">
            <mxPoint x="1450" y="430" as="sourcePoint" />
            <mxPoint x="1610" y="430" as="targetPoint" />
          </mxGeometry>
        </mxCell>
        <mxCell id="kJuOHpm5uLBI6n9v-iEt-139" value="&lt;div&gt;Centro&lt;/div&gt;&lt;div&gt;ClasificaciÃ³n&lt;br&gt;&lt;/div&gt;" style="rounded=1;arcSize=10;whiteSpace=wrap;html=1;align=center;" vertex="1" parent="1">
          <mxGeometry x="-40" y="-40" width="100" height="40" as="geometry" />
        </mxCell>
        <mxCell id="kJuOHpm5uLBI6n9v-iEt-140" value="trata" style="shape=rhombus;perimeter=rhombusPerimeter;whiteSpace=wrap;html=1;align=center;" vertex="1" parent="1">
          <mxGeometry x="155" y="-10" width="120" height="60" as="geometry" />
        </mxCell>
        <mxCell id="kJuOHpm5uLBI6n9v-iEt-141" value="" style="endArrow=none;html=1;rounded=0;" edge="1" parent="1" source="kJuOHpm5uLBI6n9v-iEt-1" target="kJuOHpm5uLBI6n9v-iEt-140">
          <mxGeometry relative="1" as="geometry">
            <mxPoint x="-10" y="80" as="sourcePoint" />
            <mxPoint x="150" y="80" as="targetPoint" />
          </mxGeometry>
        </mxCell>
        <mxCell id="kJuOHpm5uLBI6n9v-iEt-142" value="" style="endArrow=none;html=1;rounded=0;" edge="1" parent="1" source="kJuOHpm5uLBI6n9v-iEt-139" target="kJuOHpm5uLBI6n9v-iEt-140">
          <mxGeometry relative="1" as="geometry">
            <mxPoint x="-60" y="50" as="sourcePoint" />
            <mxPoint x="100" y="50" as="targetPoint" />
          </mxGeometry>
        </mxCell>
      </root>
    </mxGraphModel>
  </diagram>
</mxfile>
